<svg width="420" height="420" viewBox="0 0 420 420" fill="none" xmlns="http://www.w3.org/2000/svg">
  <rect width="420" height="420" rx="36" fill="#f4f6ff"/>
  <path d="M146 64h76c8 0 15 4 19 11l17 30 40 6c7 1 12 6 14 13l9 39 18 12c5 3 8 9 7 15l-13 60c-1 6-5 10-10 12l-36 12-6 28c-2 9-11 15-20 14l-42-6-28 26c-5 5-13 5-19 1l-36-24-28 12c-8 3-17-1-20-9l-18-44-32-18c-6-3-9-10-8-17l12-58c1-4 4-8 7-10l24-14 14-38c3-8 11-13 19-13h30l13-16c4-5 10-7 16-7Z" fill="#1a2547" fill-opacity="0.1"/>
  <path d="M168 88h58c5 0 9 2 12 7l16 27 32 4c5 1 9 4 10 8l8 30 16 10c4 3 6 7 5 12l-11 48c-1 4-3 7-7 8l-30 10-5 22c-1 7-8 12-15 11l-34-5-24 22c-4 4-10 4-15 1l-28-19-23 10c-6 2-13-1-15-7l-15-36-26-15c-5-2-7-8-6-12l10-46c0-3 2-6 5-8l20-12 12-32c2-6 8-10 14-10h24l10-13c3-4 8-6 12-6Z" fill="#71e5df" fill-opacity="0.28"/>
  <path d="M190 116h42c4 0 7 2 9 6l12 20 26 4c4 1 7 3 8 6l6 24 12 8c3 2 4 6 4 9l-9 36c-1 3-2 5-5 6l-24 8-4 18c-1 5-6 8-11 8l-26-4-19 18c-3 3-7 3-11 1l-22-15-19 8c-4 2-9-1-11-5l-12-28-20-12c-3-2-4-5-3-9l8-34c0-3 2-4 4-6l16-10 10-26c1-4 6-7 10-7h18l8-10c2-3 6-5 9-5Z" fill="#71e5df"/>
  <g fill="#1a2547">
    <circle cx="212" cy="130" r="5" />
    <circle cx="250" cy="170" r="5" fill-opacity="0.65"/>
    <circle cx="280" cy="210" r="5" fill-opacity="0.65"/>
    <circle cx="200" cy="232" r="5" />
    <circle cx="172" cy="200" r="5" fill-opacity="0.65"/>
    <circle cx="232" cy="256" r="5" fill-opacity="0.65"/>
  </g>
  <path d="M206 128l24 40-30 38 16 42-32 28" stroke="#1a2547" stroke-opacity="0.25" stroke-width="4" stroke-linecap="round" stroke-dasharray="10 20"/>
  <path d="M148 328c8-12 28-20 52-20 24 0 46 8 53 20" stroke="#71e5df" stroke-opacity="0.6" stroke-width="6" stroke-linecap="round"/>
  <path d="M154 344c8-10 26-18 46-18 20 0 38 8 46 18" stroke="#71e5df" stroke-opacity="0.4" stroke-width="6" stroke-linecap="round"/>
  <rect x="128" y="336" width="160" height="52" rx="26" fill="#ffffff" stroke="#71e5df" stroke-opacity="0.3" stroke-width="2"/>
  <text x="140" y="368" fill="#1a2547" fill-opacity="0.7" font-size="16" font-family="Inter, Arial, sans-serif">15+ Countries Live • 20+ Methods</text>
</svg>
