<svg width="640" height="560" viewBox="0 0 640 560" fill="none" xmlns="http://www.w3.org/2000/svg">
  <rect width="640" height="560" rx="48" fill="#1f2c58"/>
  <rect x="56" y="54" width="264" height="452" rx="36" fill="#ffffff" fill-opacity="0.08" stroke="#71e5df" stroke-opacity="0.35" stroke-width="2"/>
  <rect x="92" y="98" width="192" height="344" rx="24" fill="#0f1a3a" stroke="#71e5df" stroke-opacity="0.25" stroke-width="2"/>
  <rect x="112" y="132" width="152" height="52" rx="18" fill="#71e5df" fill-opacity="0.22"/>
  <rect x="112" y="206" width="152" height="46" rx="16" fill="#ffffff" fill-opacity="0.1"/>
  <rect x="112" y="272" width="152" height="46" rx="16" fill="#ffffff" fill-opacity="0.1"/>
  <rect x="136" y="344" width="104" height="44" rx="22" fill="#71e5df"/>
  <path d="M402 126c70 24 120 84 132 156 18 112-64 212-180 212-64 0-126-36-154-96" stroke="#71e5df" stroke-opacity="0.5" stroke-width="4" stroke-linecap="round" stroke-dasharray="16 22"/>
  <path d="M388 144c38 13 66 43 72 80 10 58-34 110-96 110-38 0-76-22-92-56" stroke="#71e5df" stroke-width="2" stroke-linecap="round" stroke-dasharray="10 18"/>
  <circle cx="404" cy="140" r="10" fill="#71e5df"/>
  <circle cx="516" cy="214" r="8" fill="#71e5df"/>
  <circle cx="502" cy="352" r="12" fill="#71e5df" fill-opacity="0.75"/>
  <circle cx="358" cy="410" r="10" fill="#71e5df"/>
  <circle cx="308" cy="274" r="8" fill="#71e5df" fill-opacity="0.8"/>
  <path d="M446 272c16 28 20 64 10 96-16 54-68 92-128 92-50 0-96-26-120-68" stroke="#71e5df" stroke-opacity="0.35" stroke-width="3" stroke-linecap="round" stroke-dasharray="14 28"/>
  <rect x="442" y="180" width="112" height="64" rx="20" fill="#71e5df" fill-opacity="0.18" stroke="#71e5df" stroke-opacity="0.4" stroke-width="2"/>
  <rect x="426" y="330" width="132" height="72" rx="24" fill="#ffffff" fill-opacity="0.08" stroke="#71e5df" stroke-opacity="0.3" stroke-width="2"/>
  <path d="M452 360h64" stroke="#71e5df" stroke-width="6" stroke-linecap="round"/>
  <path d="M452 380h44" stroke="#71e5df" stroke-width="6" stroke-linecap="round" stroke-opacity="0.6"/>
  <circle cx="472" cy="212" r="18" fill="#71e5df"/>
  <path d="M478 206h-12v12h12v-12Zm-6-12c-13.255 0-24 10.745-24 24 0 13.255 10.745 24 24 24s24-10.745 24-24c0-13.255-10.745-24-24-24Z" fill="#1a2547"/>
  <circle cx="188" cy="96" r="10" fill="#71e5df"/>
  <rect x="120" y="420" width="156" height="40" rx="20" fill="#ffffff" fill-opacity="0.12"/>
  <path d="M136 136h96" stroke="#71e5df" stroke-width="6" stroke-linecap="round"/>
  <path d="M136 210h76" stroke="#71e5df" stroke-opacity="0.6" stroke-width="6" stroke-linecap="round"/>
  <path d="M136 284h108" stroke="#71e5df" stroke-opacity="0.6" stroke-width="6" stroke-linecap="round"/>
  <rect x="148" y="352" width="80" height="28" rx="14" fill="#1a2547" fill-opacity="0.35"/>
  <path d="M152 432h80" stroke="#71e5df" stroke-width="4" stroke-linecap="round" stroke-opacity="0.5"/>
</svg>
