<svg width="800" height="800" viewBox="0 0 800 800" fill="none" xmlns="http://www.w3.org/2000/svg">
  <defs>
    <linearGradient id="grad" x1="0" y1="0" x2="1" y2="1">
      <stop offset="0%" stop-color="#71e5df" stop-opacity="0.08"/>
      <stop offset="100%" stop-color="#1a2547" stop-opacity="0.04"/>
    </linearGradient>
  </defs>
  <rect width="800" height="800" fill="url(#grad)"/>
  <g stroke="#71e5df" stroke-opacity="0.12" stroke-width="1">
    <path d="M0 80H800"/>
    <path d="M0 160H800"/>
    <path d="M0 240H800"/>
    <path d="M0 320H800"/>
    <path d="M0 400H800"/>
    <path d="M0 480H800"/>
    <path d="M0 560H800"/>
    <path d="M0 640H800"/>
    <path d="M0 720H800"/>
    <path d="M80 0V800"/>
    <path d="M160 0V800"/>
    <path d="M240 0V800"/>
    <path d="M320 0V800"/>
    <path d="M400 0V800"/>
    <path d="M480 0V800"/>
    <path d="M560 0V800"/>
    <path d="M640 0V800"/>
    <path d="M720 0V800"/>
  </g>
  <g fill="#71e5df" fill-opacity="0.16">
    <circle cx="120" cy="120" r="12"/>
    <circle cx="480" cy="320" r="10"/>
    <circle cx="680" cy="160" r="8"/>
    <circle cx="600" cy="600" r="14"/>
    <circle cx="200" cy="520" r="9"/>
  </g>
</svg>
