<svg width="120" height="48" viewBox="0 0 120 48" fill="none" xmlns="http://www.w3.org/2000/svg">
  <rect width="120" height="48" rx="12" fill="#ffffff"/>
  <rect x="6" y="6" width="108" height="36" rx="10" fill="#e6fefd"/>
  <path d="M32 20c0-5 3.8-8.8 8.8-8.8h7.4c1.7 0 3 1.3 3 3v4h5c2.2 0 4 1.8 4 4v9c0 2.2-1.8 4-4 4H40.8C35.2 35.2 32 30 32 25V20Z" fill="#38b000"/>
  <path d="M51 22.5a3.5 3.5 0 1 1-7 0 3.5 3.5 0 0 1 7 0Z" fill="#ffffff"/>
  <path d="M70 18h14" stroke="#38b000" stroke-width="4" stroke-linecap="round"/>
  <path d="M70 26h10" stroke="#38b000" stroke-width="4" stroke-linecap="round"/>
  <circle cx="90" cy="24" r="8" fill="#38b000"/>
  <path d="M86 24h8l-3 3" stroke="#ffffff" stroke-width="3" stroke-linecap="round" stroke-linejoin="round"/>
</svg>
